Coordinates
version=1
nRows=14
nColumns=24
inDegrees=yes

Units are S.I. units (second, meters, Newtons, ...)
Angles are in degrees.

endheader
time	pelvis_tilt	pelvis_list	pelvis_rotation	pelvis_tx	pelvis_ty	pelvis_tz	hip_flexion_r	hip_adduction_r	hip_rotation_r	knee_angle_r	ankle_angle_r	subtalar_angle_r	mtp_angle_r	hip_flexion_l	hip_adduction_l	hip_rotation_l	knee_angle_l	ankle_angle_l	subtalar_angle_l	mtp_angle_l	lumbar_extension	lumbar_bending	lumbar_rotation
      3.95500000	     -0.33115568	      3.72504386	      6.45055357	     -1.52381081	      0.91941180	      0.22896721	     28.93230550	     -2.90122810	     -8.79310567	    -15.11929493	     10.13504036	     -3.17462792	      0.00000000	    -12.61251055	      8.24877329	      6.56665891	    -19.50634504	     23.98249123	     -9.07593600	      0.00000000	    -12.19473179	     -5.74806105	    -17.55160976
      3.96000000	     -0.20802428	      3.52407215	      6.58515695	     -1.51614908	      0.91882452	      0.22880871	     28.81443806	     -2.66907012	     -8.61030492	    -15.87917003	      9.42066042	     -3.76785453	      0.00000000	    -12.65898160	      7.86850775	      6.09806734	    -20.54323352	     23.86698666	     -8.30571220	      0.00000000	    -12.24451324	     -5.42697838	    -17.69116610
      3.96500000	     -0.23485535	      3.28190720	      6.53166973	     -1.50843740	      0.91801900	      0.22903680	     28.89228298	     -2.28634883	     -8.09250837	    -16.65116071	      8.52362826	     -4.51491553	      0.00000000	    -12.44686314	      7.45077519	      5.16433070	    -21.72041727	     23.80584859	     -7.24217014	      0.00000000	    -12.08599441	     -5.13288983	    -17.57620762
      3.97000000	     -0.28406151	      2.99961526	      6.50248629	     -1.50077584	      0.91729017	      0.22926520	     28.99072271	     -1.86208663	     -7.50947922	    -17.41484964	      7.53898176	     -5.32556961	      0.00000000	    -12.15156642	      6.97991355	      4.28996716	    -22.98495564	     23.63597626	     -6.24560665	      0.00000000	    -11.90972555	     -4.79166554	    -17.48857907
      3.97500000	     -0.33942203	      2.67380502	      6.42673345	     -1.49311558	      0.91664504	      0.22958575	     29.11476939	     -1.36821363	     -6.89502325	    -18.19844159	      6.52542177	     -6.10316361	      0.00000000	    -11.79499281	      6.45686285	      3.37034468	    -24.32359947	     23.34929362	     -5.27915188	      0.00000000	    -11.72113071	     -4.40720378	    -17.35125532
      3.98000000	     -0.38908727	      2.34753366	      6.30869108	     -1.48555235	      0.91606762	      0.23000995	     29.25729544	     -0.82651056	     -6.10969355	    -19.01523699	      5.49349001	     -7.01663030	      0.00000000	    -11.38541846	      5.92888636	      2.44287446	    -25.74416409	     22.93332742	     -4.39485780	      0.00000000	    -11.56002862	     -4.03380499	    -17.17153997
      3.98500000	     -0.46375950	      1.90992533	      6.23903189	     -1.47785608	      0.91558063	      0.23034511	     29.41920655	     -0.21806690	     -5.55021984	    -19.83744129	      4.56666387	     -7.74093531	      0.00000000	    -10.88535642	      5.25913889	      1.54524323	    -27.26314457	     22.42031349	     -3.51842221	      0.00000000	    -11.32983969	     -3.52169305	    -17.02337097
      3.99000000	     -0.52327516	      1.53657966	      6.08771939	     -1.47031721	      0.91512915	      0.23087326	     29.59289511	      0.41811306	     -4.65994852	    -20.70491502	      3.62339596	     -8.75092477	      0.00000000	    -10.35070322	      4.65741496	      0.63171343	    -28.85018257	     21.75230052	     -2.75746785	      0.00000000	    -11.15973065	     -3.10373824	    -16.83046658
      3.99500000	     -0.58432133	      1.10449293	      5.96975321	     -1.46270055	      0.91474244	      0.23134717	     29.76490677	      1.08705976	     -3.93585276	    -21.58974522	      2.84112537	     -9.64723861	      0.00000000	     -9.75500263	      3.97062246	     -0.23286674	    -30.52885346	     20.97009395	     -2.03510541	      0.00000000	    -10.96807202	     -2.61184479	    -16.65792088
      4.00000000	     -0.63834620	      0.66105441	      5.83874220	     -1.45507097	      0.91439509	      0.23184318	     29.92482626	      1.78368710	     -3.21605509	    -22.48187808	      2.17768723	    -10.56929643	      0.00000000	     -9.11897970	      3.26382091	     -1.05126633	    -32.27535763	     20.05026784	     -1.41289623	      0.00000000	    -10.78442808	     -2.10855809	    -16.47392359
      4.00500000	     -0.68501346	      0.19960504	      5.70119826	     -1.44742017	      0.91407902	      0.23235761	     30.06672820	      2.50534149	     -2.54333423	    -23.37283413	      1.65704422	    -11.46976823	      0.00000000	     -8.44654243	      2.53060052	     -1.80579700	    -34.08192803	     19.00438752	     -0.88902280	      0.00000000	    -10.60895517	     -1.58631496	    -16.27794138
      4.01000000	     -0.71695546	     -0.24897781	      5.55680114	     -1.43979741	      0.91380018	      0.23286188	     30.17038329	      3.21910027	     -1.91837535	    -24.23586946	      1.28980912	    -12.35271650	      0.00000000	     -7.74132598	      1.80565899	     -2.50350044	    -35.95084551	     17.81582349	     -0.47589629	      0.00000000	    -10.46013306	     -1.07381691	    -16.10055328
      4.01500000	     -0.73464723	     -0.70608707	      5.41620945	     -1.43216546	      0.91356204	      0.23335039	     30.22947918	      3.93365865	     -1.38024350	    -25.06403880	      1.09978509	    -13.14563053	      0.00000000	     -7.01173395	      1.06963882	     -3.11682560	    -37.86121403	     16.49726869	     -0.18519688	      0.00000000	    -10.32895114	     -0.55397714	    -15.91395537
      4.02000000	     -0.74766950	     -1.14766182	      5.26605788	     -1.42458284	      0.91333729	      0.23388330	     30.25202206	      4.63927768	     -0.88686330	    -25.84530202	      1.05520884	    -13.89917798	      0.00000000	     -6.24483510	      0.34550700	     -3.66775239	    -39.81395180	     15.07781974	      0.01891255	      0.00000000	    -10.21979693	     -0.05672279	    -15.74155000
